<svg width="24" height="24" viewBox="0 0 24 24" fill="none" xmlns="http://www.w3.org/2000/svg">
<path d="M23.7188 5.89062C23.8757 5.89077 24.0015 6.01655 24 6.17188C23.8494 15.8941 15.9182 23.7747 6.13379 23.9238C5.97839 23.9255 5.85077 23.7999 5.85059 23.6445V19.3848C5.85059 19.2325 5.97502 19.1097 6.12891 19.1064C13.2448 18.9606 19.0048 13.236 19.1523 6.16602C19.1556 6.01217 19.2788 5.88872 19.4326 5.88867L23.7188 5.89062ZM12.2559 0.0771484C13.8714 0.0772122 15.1804 1.37836 15.1807 2.98242C15.1807 4.58668 13.8716 5.88861 12.2559 5.88867C10.6401 5.88867 9.33008 4.58672 9.33008 2.98242C9.33031 1.37832 10.6402 0.0771484 12.2559 0.0771484ZM2.92578 0.0761719C4.5412 0.0763851 5.85033 1.3775 5.85059 2.98145C5.85059 4.58561 4.54135 5.88748 2.92578 5.8877C1.31003 5.8877 0 4.58574 0 2.98145C0.000253194 1.37736 1.31018 0.0761719 2.92578 0.0761719Z" fill="#2196F3"/>
</svg>
